<mxfile host="Electron" agent="Mozilla/5.0 (Windows NT 10.0; Win64; x64) AppleWebKit/537.36 (KHTML, like Gecko) draw.io/26.0.16 Chrome/132.0.6834.196 Electron/34.2.0 Safari/537.36" version="26.0.16">
  <diagram name="Page-1" id="NN5EvNJZ30or-czmG7uE">
    <mxGraphModel dx="1354" dy="1169" grid="1" gridSize="10" guides="1" tooltips="1" connect="1" arrows="1" fold="1" page="1" pageScale="1" pageWidth="827" pageHeight="1169" math="0" shadow="0">
      <root>
        <mxCell id="0" />
        <mxCell id="1" parent="0" />
        <mxCell id="Ufsc1JEbzk-KQNp39UUc-1" value="" style="rounded=0;whiteSpace=wrap;html=1;fillColor=none;dashed=1;" parent="1" vertex="1">
          <mxGeometry x="30" y="160" width="120" height="560" as="geometry" />
        </mxCell>
        <mxCell id="Ufsc1JEbzk-KQNp39UUc-2" value="&lt;font style=&quot;font-size: 16px;&quot;&gt;Sources&lt;/font&gt;" style="rounded=0;whiteSpace=wrap;html=1;strokeColor=none;fontSize=19;" parent="1" vertex="1">
          <mxGeometry x="47" y="140" width="86" height="30" as="geometry" />
        </mxCell>
        <mxCell id="Ufsc1JEbzk-KQNp39UUc-3" value="" style="rounded=0;whiteSpace=wrap;html=1;fillColor=none;dashed=1;" parent="1" vertex="1">
          <mxGeometry x="200" y="160" width="570" height="560" as="geometry" />
        </mxCell>
        <mxCell id="Ufsc1JEbzk-KQNp39UUc-4" value="&lt;font style=&quot;font-size: 16px;&quot;&gt;Data Warehouse&lt;/font&gt;" style="rounded=0;whiteSpace=wrap;html=1;strokeColor=none;fontSize=19;" parent="1" vertex="1">
          <mxGeometry x="409" y="140" width="150" height="30" as="geometry" />
        </mxCell>
        <mxCell id="Ufsc1JEbzk-KQNp39UUc-5" value="" style="rounded=0;whiteSpace=wrap;html=1;fillColor=none;strokeColor=#d79b00;" parent="1" vertex="1">
          <mxGeometry x="222" y="240" width="128" height="460" as="geometry" />
        </mxCell>
        <mxCell id="Ufsc1JEbzk-KQNp39UUc-6" value="&lt;font style=&quot;font-size: 14px;&quot;&gt;&lt;b&gt;Bronze Layer&lt;/b&gt;&lt;/font&gt;" style="rounded=0;whiteSpace=wrap;html=1;strokeColor=#d79b00;fontSize=19;fillColor=#ffe6cc;" parent="1" vertex="1">
          <mxGeometry x="222" y="200" width="110" height="30" as="geometry" />
        </mxCell>
        <mxCell id="Ufsc1JEbzk-KQNp39UUc-7" value="" style="rounded=0;whiteSpace=wrap;html=1;fillColor=none;strokeColor=#666666;gradientColor=#b3b3b3;" parent="1" vertex="1">
          <mxGeometry x="403.5" y="240" width="155.5" height="460" as="geometry" />
        </mxCell>
        <mxCell id="Ufsc1JEbzk-KQNp39UUc-8" value="&lt;font style=&quot;font-size: 14px;&quot;&gt;&lt;b&gt;Silver Layer&lt;/b&gt;&lt;/font&gt;" style="rounded=0;whiteSpace=wrap;html=1;strokeColor=#666666;fontSize=19;fillColor=default;gradientColor=#b3b3b3;" parent="1" vertex="1">
          <mxGeometry x="404.5" y="200" width="155.5" height="30" as="geometry" />
        </mxCell>
        <mxCell id="Ufsc1JEbzk-KQNp39UUc-9" value="" style="rounded=0;whiteSpace=wrap;html=1;fillColor=none;strokeColor=#d6b656;gradientColor=#ffd966;" parent="1" vertex="1">
          <mxGeometry x="602" y="240" width="158" height="460" as="geometry" />
        </mxCell>
        <mxCell id="Ufsc1JEbzk-KQNp39UUc-10" value="&lt;font style=&quot;font-size: 14px;&quot;&gt;&lt;b&gt;Gold Layer&lt;/b&gt;&lt;/font&gt;" style="rounded=0;whiteSpace=wrap;html=1;strokeColor=#d6b656;fontSize=19;fillColor=#fff2cc;gradientColor=#ffd966;" parent="1" vertex="1">
          <mxGeometry x="603" y="200" width="157" height="30" as="geometry" />
        </mxCell>
        <mxCell id="Ufsc1JEbzk-KQNp39UUc-11" value="" style="rounded=0;whiteSpace=wrap;html=1;fillColor=none;dashed=1;" parent="1" vertex="1">
          <mxGeometry x="817" y="160" width="153" height="560" as="geometry" />
        </mxCell>
        <mxCell id="Ufsc1JEbzk-KQNp39UUc-12" value="&lt;font style=&quot;font-size: 16px;&quot;&gt;Consumers&lt;/font&gt;" style="rounded=0;whiteSpace=wrap;html=1;strokeColor=none;fontSize=19;" parent="1" vertex="1">
          <mxGeometry x="860" y="140" width="86" height="30" as="geometry" />
        </mxCell>
        <mxCell id="Ufsc1JEbzk-KQNp39UUc-13" value="CRM" style="image;aspect=fixed;html=1;points=[];align=center;fontSize=12;image=img/lib/azure2/general/Folder_Blank.svg;" parent="1" vertex="1">
          <mxGeometry x="65.36" y="280" width="49.29" height="40" as="geometry" />
        </mxCell>
        <mxCell id="Ufsc1JEbzk-KQNp39UUc-14" value="&lt;span style=&quot;color: rgba(0, 0, 0, 0); font-family: monospace; font-size: 0px; text-align: start;&quot;&gt;%3CmxGraphModel%3E%3Croot%3E%3CmxCell%20id%3D%220%22%2F%3E%3CmxCell%20id%3D%221%22%20parent%3D%220%22%2F%3E%3CmxCell%20id%3D%222%22%20value%3D%22CRM%22%20style%3D%22image%3Baspect%3Dfixed%3Bhtml%3D1%3Bpoints%3D%5B%5D%3Balign%3Dcenter%3BfontSize%3D12%3Bimage%3Dimg%2Flib%2Fazure2%2Fgeneral%2FFolder_Blank.svg%3B%22%20vertex%3D%221%22%20parent%3D%221%22%3E%3CmxGeometry%20x%3D%2265.36%22%20y%3D%22280%22%20width%3D%2249.29%22%20height%3D%2240%22%20as%3D%22geometry%22%2F%3E%3C%2FmxCell%3E%3C%2Froot%3E%3C%2FmxGraphModel%3E&lt;/span&gt;" style="verticalLabelPosition=bottom;html=1;verticalAlign=top;align=center;strokeColor=none;fillColor=#00BEF2;shape=mxgraph.azure.cloud_services_configuration_file;pointerEvents=1;" parent="1" vertex="1">
          <mxGeometry x="100" y="300" width="24.64" height="30" as="geometry" />
        </mxCell>
        <mxCell id="Ufsc1JEbzk-KQNp39UUc-15" value="ERP" style="image;aspect=fixed;html=1;points=[];align=center;fontSize=12;image=img/lib/azure2/general/Folder_Blank.svg;" parent="1" vertex="1">
          <mxGeometry x="65.36" y="380" width="49.29" height="40" as="geometry" />
        </mxCell>
        <mxCell id="Ufsc1JEbzk-KQNp39UUc-16" value="&lt;span style=&quot;color: rgba(0, 0, 0, 0); font-family: monospace; font-size: 0px; text-align: start;&quot;&gt;%3CmxGraphModel%3E%3Croot%3E%3CmxCell%20id%3D%220%22%2F%3E%3CmxCell%20id%3D%221%22%20parent%3D%220%22%2F%3E%3CmxCell%20id%3D%222%22%20value%3D%22CRM%22%20style%3D%22image%3Baspect%3Dfixed%3Bhtml%3D1%3Bpoints%3D%5B%5D%3Balign%3Dcenter%3BfontSize%3D12%3Bimage%3Dimg%2Flib%2Fazure2%2Fgeneral%2FFolder_Blank.svg%3B%22%20vertex%3D%221%22%20parent%3D%221%22%3E%3CmxGeometry%20x%3D%2265.36%22%20y%3D%22280%22%20width%3D%2249.29%22%20height%3D%2240%22%20as%3D%22geometry%22%2F%3E%3C%2FmxCell%3E%3C%2Froot%3E%3C%2FmxGraphModel%3E&lt;/span&gt;" style="verticalLabelPosition=bottom;html=1;verticalAlign=top;align=center;strokeColor=none;fillColor=#00BEF2;shape=mxgraph.azure.cloud_services_configuration_file;pointerEvents=1;" parent="1" vertex="1">
          <mxGeometry x="100" y="400" width="24.64" height="30" as="geometry" />
        </mxCell>
        <mxCell id="Ufsc1JEbzk-KQNp39UUc-17" value="" style="endArrow=none;html=1;rounded=0;exitX=0.165;exitY=0.486;exitDx=0;exitDy=0;exitPerimeter=0;entryX=0.992;entryY=0.669;entryDx=0;entryDy=0;entryPerimeter=0;" parent="1" edge="1">
          <mxGeometry width="50" height="50" relative="1" as="geometry">
            <mxPoint x="43.799999999999976" y="451.99999999999994" as="sourcePoint" />
            <mxPoint x="136.18999999999997" y="453.1199999999999" as="targetPoint" />
          </mxGeometry>
        </mxCell>
        <mxCell id="Ufsc1JEbzk-KQNp39UUc-18" value="Object Types: CSV Files&lt;div&gt;Interface: Files In Folders&lt;/div&gt;" style="text;html=1;align=center;verticalAlign=middle;whiteSpace=wrap;rounded=0;fontSize=11;" parent="1" vertex="1">
          <mxGeometry x="40" y="500" width="100" height="30" as="geometry" />
        </mxCell>
        <mxCell id="Ufsc1JEbzk-KQNp39UUc-19" value="" style="html=1;verticalLabelPosition=bottom;align=center;labelBackgroundColor=#ffffff;verticalAlign=top;strokeWidth=2;strokeColor=#d79b00;shadow=0;dashed=0;shape=mxgraph.ios7.icons.data;fillColor=#ffe6cc;" parent="1" vertex="1">
          <mxGeometry x="263.5" y="282.73" width="45" height="47.27" as="geometry" />
        </mxCell>
        <mxCell id="Ufsc1JEbzk-KQNp39UUc-20" value="" style="html=1;verticalLabelPosition=bottom;align=center;labelBackgroundColor=#ffffff;verticalAlign=top;strokeWidth=2;strokeColor=#666666;shadow=0;dashed=0;shape=mxgraph.ios7.icons.data;fillColor=#f5f5f5;gradientColor=#b3b3b3;" parent="1" vertex="1">
          <mxGeometry x="462.5" y="282.73" width="45" height="47.27" as="geometry" />
        </mxCell>
        <mxCell id="Ufsc1JEbzk-KQNp39UUc-21" value="" style="html=1;verticalLabelPosition=bottom;align=center;labelBackgroundColor=#ffffff;verticalAlign=top;strokeWidth=2;strokeColor=#d6b656;shadow=0;dashed=0;shape=mxgraph.ios7.icons.data;fillColor=#fff2cc;" parent="1" vertex="1">
          <mxGeometry x="658.5" y="280" width="45" height="47.27" as="geometry" />
        </mxCell>
        <mxCell id="Ufsc1JEbzk-KQNp39UUc-24" value="" style="shape=flexArrow;endArrow=classic;html=1;rounded=0;fillColor=#dae8fc;gradientColor=#7ea6e0;strokeColor=#6c8ebf;" parent="1" edge="1">
          <mxGeometry width="50" height="50" relative="1" as="geometry">
            <mxPoint x="148" y="380" as="sourcePoint" />
            <mxPoint x="201" y="380" as="targetPoint" />
          </mxGeometry>
        </mxCell>
        <mxCell id="Ufsc1JEbzk-KQNp39UUc-28" value="Raw Data" style="text;html=1;align=center;verticalAlign=middle;whiteSpace=wrap;rounded=0;" parent="1" vertex="1">
          <mxGeometry x="252" y="340" width="60" height="30" as="geometry" />
        </mxCell>
        <mxCell id="Ufsc1JEbzk-KQNp39UUc-29" value="Cleaned, Standardized Data" style="text;html=1;align=center;verticalAlign=middle;whiteSpace=wrap;rounded=0;" parent="1" vertex="1">
          <mxGeometry x="455" y="340" width="60" height="30" as="geometry" />
        </mxCell>
        <mxCell id="Ufsc1JEbzk-KQNp39UUc-30" value="Business-Ready Data" style="text;html=1;align=center;verticalAlign=middle;whiteSpace=wrap;rounded=0;" parent="1" vertex="1">
          <mxGeometry x="651" y="340" width="60" height="30" as="geometry" />
        </mxCell>
        <mxCell id="zluhnqHJI4vELheBzOki-2" value="&lt;br&gt;&lt;span style=&quot;color: rgb(0, 0, 0); font-family: Helvetica; font-size: 11px; font-style: normal; font-variant-ligatures: normal; font-variant-caps: normal; font-weight: 400; letter-spacing: normal; orphans: 2; text-align: left; text-indent: 0px; text-transform: none; widows: 2; word-spacing: 0px; -webkit-text-stroke-width: 0px; white-space: normal; background-color: rgb(251, 251, 251); text-decoration-thickness: initial; text-decoration-style: initial; text-decoration-color: initial; display: inline !important; float: none;&quot;&gt;Object Type: Tables&lt;/span&gt;&lt;div style=&quot;forced-color-adjust: none; color: rgb(0, 0, 0); font-family: Helvetica; font-size: 11px; font-style: normal; font-variant-ligatures: normal; font-variant-caps: normal; font-weight: 400; letter-spacing: normal; orphans: 2; text-align: left; text-indent: 0px; text-transform: none; widows: 2; word-spacing: 0px; -webkit-text-stroke-width: 0px; white-space: normal; background-color: rgb(251, 251, 251); text-decoration-thickness: initial; text-decoration-style: initial; text-decoration-color: initial;&quot;&gt;Load:&lt;/div&gt;&lt;div style=&quot;forced-color-adjust: none; color: rgb(0, 0, 0); font-family: Helvetica; font-size: 11px; font-style: normal; font-variant-ligatures: normal; font-variant-caps: normal; font-weight: 400; letter-spacing: normal; orphans: 2; text-align: left; text-indent: 0px; text-transform: none; widows: 2; word-spacing: 0px; -webkit-text-stroke-width: 0px; white-space: normal; background-color: rgb(251, 251, 251); text-decoration-thickness: initial; text-decoration-style: initial; text-decoration-color: initial;&quot;&gt;&lt;ul style=&quot;forced-color-adjust: none;&quot;&gt;&lt;li style=&quot;forced-color-adjust: none;&quot;&gt;Batch Processing&lt;/li&gt;&lt;li style=&quot;forced-color-adjust: none;&quot;&gt;Full Load&lt;/li&gt;&lt;li style=&quot;forced-color-adjust: none;&quot;&gt;Truncate &amp;amp; Insert&lt;/li&gt;&lt;/ul&gt;&lt;div style=&quot;forced-color-adjust: none;&quot;&gt;Transformations:&lt;/div&gt;&lt;div style=&quot;forced-color-adjust: none;&quot;&gt;&lt;ul&gt;&lt;li&gt;Data Cleaning&lt;/li&gt;&lt;li&gt;Data Standarization&lt;/li&gt;&lt;li&gt;Data normalization&lt;/li&gt;&lt;li&gt;Derived Column&lt;/li&gt;&lt;li&gt;Data Enrichment&lt;/li&gt;&lt;/ul&gt;&lt;/div&gt;&lt;/div&gt;&lt;div style=&quot;forced-color-adjust: none; color: rgb(0, 0, 0); font-family: Helvetica; font-size: 11px; font-style: normal; font-variant-ligatures: normal; font-variant-caps: normal; font-weight: 400; letter-spacing: normal; orphans: 2; text-align: left; text-indent: 0px; text-transform: none; widows: 2; word-spacing: 0px; -webkit-text-stroke-width: 0px; white-space: normal; background-color: rgb(251, 251, 251); text-decoration-thickness: initial; text-decoration-style: initial; text-decoration-color: initial;&quot;&gt;Data Model: None (as-is)&lt;/div&gt;&lt;div&gt;&lt;br/&gt;&lt;/div&gt;" style="text;html=1;align=center;verticalAlign=middle;whiteSpace=wrap;rounded=0;" vertex="1" parent="1">
          <mxGeometry x="411" y="531" width="129" height="30" as="geometry" />
        </mxCell>
        <mxCell id="zluhnqHJI4vELheBzOki-3" value="Object Type: Tables&lt;div&gt;Load:&lt;/div&gt;&lt;div&gt;&lt;ul&gt;&lt;li&gt;Batch Processing&lt;/li&gt;&lt;li&gt;Full Load&lt;/li&gt;&lt;li&gt;Truncate &amp;amp; Insert&lt;/li&gt;&lt;/ul&gt;&lt;div&gt;No Transformations&lt;/div&gt;&lt;/div&gt;&lt;div&gt;&lt;br&gt;&lt;/div&gt;&lt;div&gt;Data Model: None (as-is)&lt;/div&gt;" style="text;html=1;align=left;verticalAlign=middle;whiteSpace=wrap;rounded=0;fontSize=11;" vertex="1" parent="1">
          <mxGeometry x="230" y="465" width="100" height="30" as="geometry" />
        </mxCell>
        <mxCell id="zluhnqHJI4vELheBzOki-4" value="" style="endArrow=none;html=1;rounded=0;exitX=0.165;exitY=0.486;exitDx=0;exitDy=0;exitPerimeter=0;entryX=0.992;entryY=0.669;entryDx=0;entryDy=0;entryPerimeter=0;" edge="1" parent="1">
          <mxGeometry width="50" height="50" relative="1" as="geometry">
            <mxPoint x="235.79999999999998" y="383.99999999999994" as="sourcePoint" />
            <mxPoint x="328.18999999999994" y="385.1199999999999" as="targetPoint" />
          </mxGeometry>
        </mxCell>
        <mxCell id="zluhnqHJI4vELheBzOki-6" value="" style="endArrow=none;html=1;rounded=0;exitX=0.165;exitY=0.486;exitDx=0;exitDy=0;exitPerimeter=0;entryX=1;entryY=0.318;entryDx=0;entryDy=0;entryPerimeter=0;" edge="1" parent="1">
          <mxGeometry width="50" height="50" relative="1" as="geometry">
            <mxPoint x="615.8" y="384.99999999999994" as="sourcePoint" />
            <mxPoint x="745" y="386.28" as="targetPoint" />
          </mxGeometry>
        </mxCell>
        <mxCell id="zluhnqHJI4vELheBzOki-9" value="" style="shape=flexArrow;endArrow=classic;html=1;rounded=0;fillColor=#dae8fc;gradientColor=#7ea6e0;strokeColor=#6c8ebf;exitX=1.001;exitY=0.357;exitDx=0;exitDy=0;exitPerimeter=0;" edge="1" parent="1">
          <mxGeometry width="50" height="50" relative="1" as="geometry">
            <mxPoint x="357.1100000000001" y="382.2199999999998" as="sourcePoint" />
            <mxPoint x="395" y="381" as="targetPoint" />
          </mxGeometry>
        </mxCell>
        <mxCell id="zluhnqHJI4vELheBzOki-10" value="" style="shape=flexArrow;endArrow=classic;html=1;rounded=0;fillColor=#dae8fc;gradientColor=#7ea6e0;strokeColor=#6c8ebf;" edge="1" parent="1">
          <mxGeometry width="50" height="50" relative="1" as="geometry">
            <mxPoint x="561" y="380" as="sourcePoint" />
            <mxPoint x="598.5" y="378.82" as="targetPoint" />
          </mxGeometry>
        </mxCell>
        <mxCell id="zluhnqHJI4vELheBzOki-11" value="" style="shape=flexArrow;endArrow=classic;html=1;rounded=0;fillColor=#dae8fc;gradientColor=#7ea6e0;strokeColor=#6c8ebf;" edge="1" parent="1">
          <mxGeometry width="50" height="50" relative="1" as="geometry">
            <mxPoint x="774" y="380" as="sourcePoint" />
            <mxPoint x="814" y="380" as="targetPoint" />
          </mxGeometry>
        </mxCell>
        <mxCell id="zluhnqHJI4vELheBzOki-14" value="" style="endArrow=none;html=1;rounded=0;exitX=0.165;exitY=0.486;exitDx=0;exitDy=0;exitPerimeter=0;" edge="1" parent="1">
          <mxGeometry width="50" height="50" relative="1" as="geometry">
            <mxPoint x="415.79999999999995" y="386.99999999999994" as="sourcePoint" />
            <mxPoint x="550" y="387" as="targetPoint" />
          </mxGeometry>
        </mxCell>
        <mxCell id="zluhnqHJI4vELheBzOki-19" value="&lt;br&gt;&lt;br style=&quot;forced-color-adjust: none;&quot;&gt;&lt;span style=&quot;forced-color-adjust: none; color: rgb(0, 0, 0); font-family: Helvetica; font-size: 11px; font-style: normal; font-variant-ligatures: normal; font-variant-caps: normal; font-weight: 400; letter-spacing: normal; orphans: 2; text-align: left; text-indent: 0px; text-transform: none; widows: 2; word-spacing: 0px; -webkit-text-stroke-width: 0px; white-space: normal; background-color: rgb(251, 251, 251); text-decoration-thickness: initial; text-decoration-style: initial; text-decoration-color: initial; float: none; display: inline !important;&quot;&gt;Object Type: Views&lt;/span&gt;&lt;div style=&quot;forced-color-adjust: none; color: rgb(0, 0, 0); font-family: Helvetica; font-size: 11px; font-style: normal; font-variant-ligatures: normal; font-variant-caps: normal; font-weight: 400; letter-spacing: normal; orphans: 2; text-align: left; text-indent: 0px; text-transform: none; widows: 2; word-spacing: 0px; -webkit-text-stroke-width: 0px; white-space: normal; background-color: rgb(251, 251, 251); text-decoration-thickness: initial; text-decoration-style: initial; text-decoration-color: initial;&quot;&gt;No Load&lt;/div&gt;&lt;div style=&quot;forced-color-adjust: none; color: rgb(0, 0, 0); font-family: Helvetica; font-size: 11px; font-style: normal; font-variant-ligatures: normal; font-variant-caps: normal; font-weight: 400; letter-spacing: normal; orphans: 2; text-align: left; text-indent: 0px; text-transform: none; widows: 2; word-spacing: 0px; -webkit-text-stroke-width: 0px; white-space: normal; background-color: rgb(251, 251, 251); text-decoration-thickness: initial; text-decoration-style: initial; text-decoration-color: initial;&quot;&gt;&lt;br&gt;&lt;/div&gt;&lt;div style=&quot;forced-color-adjust: none; color: rgb(0, 0, 0); font-family: Helvetica; font-size: 11px; font-style: normal; font-variant-ligatures: normal; font-variant-caps: normal; font-weight: 400; letter-spacing: normal; orphans: 2; text-align: left; text-indent: 0px; text-transform: none; widows: 2; word-spacing: 0px; -webkit-text-stroke-width: 0px; white-space: normal; background-color: rgb(251, 251, 251); text-decoration-thickness: initial; text-decoration-style: initial; text-decoration-color: initial;&quot;&gt;&lt;div style=&quot;forced-color-adjust: none;&quot;&gt;Transformations:&lt;/div&gt;&lt;div style=&quot;forced-color-adjust: none;&quot;&gt;&lt;ul style=&quot;forced-color-adjust: none;&quot;&gt;&lt;li style=&quot;forced-color-adjust: none;&quot;&gt;Data Ingestions&lt;/li&gt;&lt;li style=&quot;forced-color-adjust: none;&quot;&gt;Data Aggregation&lt;/li&gt;&lt;li style=&quot;forced-color-adjust: none;&quot;&gt;Business Logic&lt;/li&gt;&lt;/ul&gt;&lt;/div&gt;&lt;/div&gt;&lt;div style=&quot;forced-color-adjust: none; color: rgb(0, 0, 0); font-family: Helvetica; font-size: 11px; font-style: normal; font-variant-ligatures: normal; font-variant-caps: normal; font-weight: 400; letter-spacing: normal; orphans: 2; text-align: left; text-indent: 0px; text-transform: none; widows: 2; word-spacing: 0px; -webkit-text-stroke-width: 0px; white-space: normal; background-color: rgb(251, 251, 251); text-decoration-thickness: initial; text-decoration-style: initial; text-decoration-color: initial;&quot;&gt;Data Model:&amp;nbsp;&lt;/div&gt;&lt;div style=&quot;forced-color-adjust: none; color: rgb(0, 0, 0); font-family: Helvetica; font-size: 11px; font-style: normal; font-variant-ligatures: normal; font-variant-caps: normal; font-weight: 400; letter-spacing: normal; orphans: 2; text-align: left; text-indent: 0px; text-transform: none; widows: 2; word-spacing: 0px; -webkit-text-stroke-width: 0px; white-space: normal; background-color: rgb(251, 251, 251); text-decoration-thickness: initial; text-decoration-style: initial; text-decoration-color: initial;&quot;&gt;&lt;ul&gt;&lt;li&gt;Star Schema&lt;/li&gt;&lt;li&gt;Flat Table&lt;/li&gt;&lt;li&gt;Aggregated Table&lt;/li&gt;&lt;/ul&gt;&lt;/div&gt;&lt;div style=&quot;forced-color-adjust: none;&quot;&gt;&lt;br&gt;&lt;br&gt;&lt;/div&gt;" style="text;html=1;align=center;verticalAlign=middle;whiteSpace=wrap;rounded=0;" vertex="1" parent="1">
          <mxGeometry x="604" y="480" width="130" height="89" as="geometry" />
        </mxCell>
        <mxCell id="zluhnqHJI4vELheBzOki-20" value="" style="image;aspect=fixed;html=1;points=[];align=center;fontSize=12;image=img/lib/azure2/analytics/Power_BI_Embedded.svg;" vertex="1" parent="1">
          <mxGeometry x="840" y="212" width="51" height="68" as="geometry" />
        </mxCell>
        <mxCell id="zluhnqHJI4vELheBzOki-21" value="" style="points=[];aspect=fixed;html=1;align=center;shadow=0;dashed=0;fillColor=#FF6A00;strokeColor=none;shape=mxgraph.alibaba_cloud.petadata_hybriddb_for_mysql;" vertex="1" parent="1">
          <mxGeometry x="869.75" y="504.9" width="56.699999999999996" height="56.1" as="geometry" />
        </mxCell>
        <mxCell id="zluhnqHJI4vELheBzOki-23" value="" style="image;sketch=0;aspect=fixed;html=1;points=[];align=center;fontSize=12;image=img/lib/mscae/Machine_Learning_Service_Workspaces.svg;" vertex="1" parent="1">
          <mxGeometry x="869.75" y="400" width="46" height="50" as="geometry" />
        </mxCell>
        <mxCell id="zluhnqHJI4vELheBzOki-24" value="" style="shadow=0;dashed=0;html=1;strokeColor=none;fillColor=#EF8F21;labelPosition=center;verticalLabelPosition=bottom;verticalAlign=top;align=center;outlineConnect=0;shape=mxgraph.veeam.reporting;" vertex="1" parent="1">
          <mxGeometry x="870.95" y="320" width="44.8" height="44.8" as="geometry" />
        </mxCell>
        <mxCell id="zluhnqHJI4vELheBzOki-25" value="" style="verticalLabelPosition=bottom;sketch=0;aspect=fixed;html=1;verticalAlign=top;strokeColor=none;align=center;outlineConnect=0;shape=mxgraph.citrix.reporting;" vertex="1" parent="1">
          <mxGeometry x="891" y="213.73000000000002" width="61.5" height="69" as="geometry" />
        </mxCell>
        <mxCell id="zluhnqHJI4vELheBzOki-26" value="Text" style="text;html=1;align=center;verticalAlign=middle;whiteSpace=wrap;rounded=0;" vertex="1" parent="1">
          <mxGeometry x="540" y="400" width="60" height="30" as="geometry" />
        </mxCell>
        <mxCell id="zluhnqHJI4vELheBzOki-27" value="BI &amp;amp; Reporting" style="text;html=1;align=center;verticalAlign=middle;whiteSpace=wrap;rounded=0;" vertex="1" parent="1">
          <mxGeometry x="846" y="283" width="100" height="30" as="geometry" />
        </mxCell>
        <mxCell id="zluhnqHJI4vELheBzOki-28" value="SQL Queries" style="text;html=1;align=center;verticalAlign=middle;whiteSpace=wrap;rounded=0;" vertex="1" parent="1">
          <mxGeometry x="845" y="365" width="100" height="30" as="geometry" />
        </mxCell>
        <mxCell id="zluhnqHJI4vELheBzOki-29" value="ML" style="text;html=1;align=center;verticalAlign=middle;whiteSpace=wrap;rounded=0;" vertex="1" parent="1">
          <mxGeometry x="844" y="450" width="100" height="30" as="geometry" />
        </mxCell>
        <mxCell id="zluhnqHJI4vELheBzOki-30" value="" style="image;aspect=fixed;html=1;points=[];align=center;fontSize=12;image=img/lib/azure2/databases/Azure_Database_MySQL_Server.svg;" vertex="1" parent="1">
          <mxGeometry x="205" y="97" width="48" height="64" as="geometry" />
        </mxCell>
      </root>
    </mxGraphModel>
  </diagram>
</mxfile>
